<?xml version="1.0" encoding="UTF-8"?>
<svg width="20px" height="20px" viewBox="0 0 20 20" version="1.1" xmlns="http://www.w3.org/2000/svg" xmlns:xlink="http://www.w3.org/1999/xlink">
    <!-- Generator: Sketch 48.1 (47250) - http://www.bohemiancoding.com/sketch -->
    <title>Untitled 2</title>
    <desc>Created with Sketch.</desc>
    <defs></defs>
    <g id="Page-1" stroke="none" stroke-width="1" fill="none" fill-rule="evenodd">
        <g id="zl" fill-rule="nonzero">
            <g id="知识产权">
                <g id="Group">
                    <rect id="Rectangle" fill="#774FFF" x="0" y="0" width="20" height="20" rx="10"></rect>
                    <path d="M13.9584483,8.39015595 C13.9157601,8.56565196 13.8683287,8.73996218 13.8149685,8.91308662 C14.2952109,8.75656316 14.6462029,8.32493784 14.7873112,7.71070182 L14.0959992,7.71070182 C14.0556826,7.93718653 14.009437,8.16485703 13.9584483,8.39015595 Z M6.53069843,7.70951604 L5.83701489,7.70951604 C5.97693739,8.32730941 6.3279294,8.75774894 6.80817185,8.91427241 C6.69077925,8.51940639 6.59710233,8.11742568 6.53069843,7.70951604 Z M15.6007589,7.55892149 C15.4489786,8.72336121 14.7754534,9.52495108 13.7971817,9.70756178 L13.5315661,9.75617892 L13.5066647,9.7573647 C13.405873,9.99689304 13.2955952,10.2316782 13.1710879,10.4617203 C12.8212816,11.0889999 12.4110004,11.5870291 11.9497305,11.9415785 C11.5892522,12.2320955 11.1599985,12.4265641 10.6999144,12.5083832 L10.6999144,14.0653173 L11.8584252,14.0653173 C12.0706805,14.0653173 12.2438049,14.2360702 12.2438049,14.4459539 C12.2449907,14.6558377 12.073052,14.8254048 11.8584252,14.8265906 L8.76708673,14.8265906 C8.55364564,14.8265906 8.37933541,14.6558377 8.3805212,14.4459539 L8.3805212,14.4447682 C8.3805212,14.2348844 8.55364564,14.0641316 8.76708673,14.0641316 L9.92559752,14.0641316 L9.92559752,12.5071974 C9.4655134,12.4265641 9.03388809,12.2320955 8.67578137,11.9403927 C8.21688303,11.5870291 7.80541604,11.0878142 7.45560982,10.4605345 C7.32991673,10.232864 7.21845305,9.99807882 7.11884721,9.7573647 L7.09394575,9.75617892 L6.82833017,9.70756178 C5.85243008,9.52376529 5.17771909,8.72098964 5.02712454,7.55773571 L5.00340887,7.37749657 C4.97495005,7.16879862 5.12791617,6.97670164 5.34135726,6.95061439 C5.35558666,6.94942861 5.37218764,6.94705704 5.38760283,6.94705704 L6.43464994,6.94705704 C6.40263378,6.60792287 6.38484702,6.26641712 6.38128967,5.92491138 C6.38128967,5.78854624 6.38366124,5.65455267 6.38959016,5.51581596 L6.39670486,5.36522142 C6.40381956,5.16245238 6.57575822,5.00237157 6.7820846,5 L13.8386841,5 C14.0473821,5 14.218135,5.16245238 14.2264355,5.36522142 L14.2323644,5.51818753 C14.2489653,5.99487263 14.2335502,6.47037194 14.1896762,6.94587126 L15.2367233,6.94587126 C15.4489786,6.94468547 15.622103,7.11069521 15.6232888,7.31820738 C15.6232888,7.33717992 15.622103,7.35733824 15.6185457,7.375125 L15.6007589,7.55892149 Z" id="Shape" fill="#FFFFFF"></path>
                </g>
            </g>
        </g>
    </g>
</svg>