<?xml version="1.0" encoding="UTF-8"?>
<svg width="664px" height="332px" viewBox="0 0 664 332" version="1.1" xmlns="http://www.w3.org/2000/svg" xmlns:xlink="http://www.w3.org/1999/xlink">
    <!-- Generator: Sketch 48.1 (47250) - http://www.bohemiancoding.com/sketch -->
    <title>Untitled</title>
    <desc>Created with Sketch.</desc>
    <defs></defs>
    <g id="Page-1" stroke="none" stroke-width="1" fill="none" fill-rule="evenodd">
        <g id="no-data-img">
            <ellipse id="shadow" fill="#ECF1EE" fill-rule="nonzero" cx="322" cy="261" rx="120" ry="9"></ellipse>
            <path d="M220.000002,186 C219.999186,185.23077 220.291492,184.462149 220.87625,183.877391 C222.047823,182.705818 223.94901,182.707511 225.124137,183.882638 L244.604172,203.362672 L264.084207,183.882638 C264.770904,183.195941 265.707073,182.910758 266.599934,183.02602 C267.495271,182.907644 268.434672,183.193172 269.124137,183.882638 L288.604172,203.362672 L308.084207,183.882638 C308.770903,183.195941 309.707073,182.910758 310.599934,183.02602 C311.495271,182.907644 312.434672,183.193172 313.124137,183.882638 L332.604172,203.362672 L352.084207,183.882638 C352.769459,183.197386 353.703136,182.91196 354.594299,183.025298 C355.489657,182.904144 356.428684,183.187184 357.115665,183.874165 L371.501867,198.260368 C372.671659,199.430159 372.66783,201.330593 371.498641,202.499782 C370.327069,203.671355 368.428232,203.672013 367.259227,202.503008 L354.604172,189.847954 L335.124137,209.327989 C334.437441,210.014685 333.501271,210.299868 332.60841,210.184606 C331.713074,210.302982 330.773672,210.017454 330.084207,209.327989 L310.604172,189.847954 L291.124137,209.327989 C290.437441,210.014685 289.501271,210.299868 288.608411,210.184606 C287.713074,210.302982 286.773672,210.017454 286.084207,209.327989 L266.604172,189.847954 L247.124137,209.327989 C246.437441,210.014685 245.501271,210.299868 244.608411,210.184606 C243.713074,210.302982 242.773672,210.017454 242.084207,209.327989 L226,193.243782 L226,246.00509 C226,249.31011 228.690722,252 232.009896,252 L411.990104,252 C415.322479,252 418,249.315987 418,246.00509 L418,221 C418,219.343146 419.343146,218 421,218 C422.656854,218 424,219.343146 424,221 C424,221.001075 423.999999,221.00215 423.999998,221.003224 L423.999998,246.00509 C423.999998,252.635565 418.630314,258 411.990102,258 L232.009894,258 C225.381487,258 219.999998,252.628295 219.999998,246.00509 L219.999998,186 L220.000002,186 Z M226,159.7585 L226,161 L219.999998,161 L219.999998,68.9949105 C219.999998,62.3644349 225.369683,57 232.009894,57 L411.990102,57 C418.61851,57 423.999998,62.3717053 423.999998,68.9949105 L423.999998,130.996776 C423.999999,130.997851 424,130.998925 424,131 C424,132.656854 422.656854,134 421,134 C419.343146,134 418,132.656854 418,131 L418,68.9949105 C418,65.6898901 415.309278,63 411.990104,63 L232.009896,63 C228.677521,63 226,65.6840129 226,68.9949105 L226,159.7585 L225.124137,158.882638 C223.94901,157.707511 222.047823,157.705818 220.87625,158.877391 C219.707061,160.04658 219.707026,161.950808 220.881497,163.125278 L242.084207,184.327989 C242.773672,185.017454 243.713074,185.302982 244.608411,185.184606 C245.501271,185.299868 246.437441,185.014685 247.124137,184.327989 L266.604172,164.847954 L286.084207,184.327989 C286.773672,185.017454 287.713074,185.302982 288.608411,185.184606 C289.501271,185.299868 290.437441,185.014685 291.124137,184.327989 L310.604172,164.847954 L330.084207,184.327989 C330.773672,185.017454 331.713074,185.302982 332.60841,185.184606 C333.501271,185.299868 334.437441,185.014685 335.124137,184.327989 L354.604172,164.847954 L374.084207,184.327989 C374.771289,185.01507 375.706581,185.301003 376.599123,185.18582 C377.492225,185.305436 378.428558,185.023568 379.11371,184.338416 L387.609923,175.842203 C388.769357,174.682769 388.776315,172.776315 387.604743,171.604743 C386.435554,170.435554 384.535994,170.43085 383.367282,171.599562 L376.604172,178.362672 L357.124137,158.882638 C356.434672,158.193172 355.495271,157.907644 354.599934,158.02602 C353.707073,157.910758 352.770903,158.195941 352.084207,158.882638 L332.604172,178.362672 L313.124137,158.882638 C312.434672,158.193172 311.495271,157.907644 310.599934,158.02602 C309.707073,157.910758 308.770903,158.195941 308.084207,158.882638 L288.604172,178.362672 L269.124137,158.882638 C268.434672,158.193172 267.495271,157.907644 266.599934,158.02602 C265.707073,157.910758 264.770904,158.195941 264.084207,158.882638 L244.604172,178.362672 L226,159.7585 Z M240,81 C237.790861,81 236,79.209139 236,77 C236,74.790861 237.790861,73 240,73 C242.209139,73 244,74.790861 244,77 C244,79.209139 242.209139,81 240,81 Z M256,81 C253.790861,81 252,79.209139 252,77 C252,74.790861 253.790861,73 256,73 C258.209139,73 260,74.790861 260,77 C260,79.209139 258.209139,81 256,81 Z M272,81 C269.790861,81 268,79.209139 268,77 C268,74.790861 269.790861,73 272,73 C274.209139,73 276,74.790861 276,77 C276,79.209139 274.209139,81 272,81 Z M296,77 C296,75.3431458 297.351121,74 298.999283,74 L403.000717,74 C404.657175,74 406,75.3465171 406,77 C406,78.6568542 404.648879,80 403.000717,80 L298.999283,80 C297.342825,80 296,78.6534829 296,77 Z" id="Shape" fill="#3B4340" fill-rule="nonzero" opacity="0.266870471"></path>
            <g id="Triangle-1-+-Rectangle-270-+-Oval-106" opacity="0.176177536" transform="translate(381.000000, 144.000000)" fill="#4A4A4A" fill-rule="nonzero">
                <path d="M33.1103515,5.02343753 C36.9153993,-1.06463891 43.0841713,-1.06532587 46.8896485,5.02343753 L78.1103515,54.9765625 C81.9153993,61.0646389 79.1814753,66 72.0093451,66 L7.99065491,66 C0.816114314,66 -1.91582867,61.0653259 1.88964845,54.9765625 L33.1103515,5.02343753 Z M36,21.0000191 L36,44.9999809 C36,46.6526814 37.3431458,48 39,48 C40.6534829,48 42,46.6568457 42,44.9999809 L42,21.0000191 C42,19.3473186 40.6568542,18 39,18 C37.3465171,18 36,19.3431543 36,21.0000191 Z M39,58 C40.6568542,58 42,56.6568542 42,55 C42,53.3431458 40.6568542,52 39,52 C37.3431458,52 36,53.3431458 36,55 C36,56.6568542 37.3431458,58 39,58 Z" id="Triangle-1"></path>
            </g>
            <text id="4" font-family="AmericanTypewriter, American Typewriter" font-size="288" font-weight="normal" fill="#DDDDDD">
                <tspan x="0" y="260">4</tspan>
            </text>
            <text id="4" font-family="AmericanTypewriter, American Typewriter" font-size="288" font-weight="normal" fill="#DDDDDD">
                <tspan x="480" y="260">4</tspan>
            </text>
        </g>
    </g>
</svg>