<?xml version="1.0" encoding="UTF-8"?>
<svg width="307px" height="256px" viewBox="0 0 307 256" version="1.1" xmlns="http://www.w3.org/2000/svg" xmlns:xlink="http://www.w3.org/1999/xlink">
    <!-- Generator: Sketch 48.1 (47250) - http://www.bohemiancoding.com/sketch -->
    <title>Icons by Sunako - Sketch App Source</title>
    <desc>Created with Sketch.</desc>
    <defs></defs>
    <g id="Icons-by-Sunako---Sketch-App-Source" stroke="none" stroke-width="1" fill="none" fill-rule="evenodd" transform="translate(-323.000000, -1089.000000)">
        <g id=":D" transform="translate(353.000000, 1104.000000)">
            <ellipse id="shadow" fill="#ECF1EE" cx="120" cy="204" rx="120" ry="9"></ellipse>
            <path d="M18.0000017,129 C17.999186,128.23077 18.2914919,127.462149 18.8762501,126.877391 C20.0478229,125.705818 21.9490104,125.707511 23.1241374,126.882638 L42.6041721,146.362672 L62.0842069,126.882638 C62.7709035,126.195941 63.7070734,125.910758 64.5999338,126.02602 C65.4952705,125.907644 66.4346718,126.193172 67.1241374,126.882638 L86.6041721,146.362672 L106.084207,126.882638 C106.770903,126.195941 107.707073,125.910758 108.599934,126.02602 C109.495271,125.907644 110.434672,126.193172 111.124137,126.882638 L130.604172,146.362672 L150.084207,126.882638 C150.769459,126.197386 151.703136,125.91196 152.594299,126.025298 C153.489657,125.904144 154.428684,126.187184 155.115665,126.874165 L169.501867,141.260368 C170.671659,142.430159 170.66783,144.330593 169.498641,145.499782 C168.327069,146.671355 166.428232,146.672013 165.259227,145.503008 L152.604172,132.847954 L133.124137,152.327989 C132.437441,153.014685 131.501271,153.299868 130.60841,153.184606 C129.713074,153.302982 128.773672,153.017454 128.084207,152.327989 L108.604172,132.847954 L89.1241374,152.327989 C88.4374408,153.014685 87.5012709,153.299868 86.6084105,153.184606 C85.7130737,153.302982 84.7736724,153.017454 84.0842069,152.327989 L64.6041721,132.847954 L45.1241374,152.327989 C44.4374408,153.014685 43.5012709,153.299868 42.6084105,153.184606 C41.7130737,153.302982 40.7736724,153.017454 40.0842069,152.327989 L24,136.243782 L24,189.00509 C24,192.31011 26.690722,195 30.0098959,195 L209.990104,195 C213.322479,195 216,192.315987 216,189.00509 L216,164 C216,162.343146 217.343146,161 219,161 C220.656854,161 222,162.343146 222,164 C222,164.001075 221.999999,164.00215 221.999998,164.003224 L221.999998,189.00509 C221.999998,195.635565 216.630314,201 209.990102,201 L30.0098942,201 C23.3814869,201 17.9999983,195.628295 17.9999983,189.00509 L17.9999983,129 Z M24,102.7585 L24,104 L17.9999983,104 L17.9999983,11.9949105 C17.9999983,5.36443493 23.3696828,0 30.0098942,0 L209.990102,0 C216.61851,0 221.999998,5.37170533 221.999998,11.9949105 L221.999998,73.9967759 C221.999999,73.9978505 222,73.9989252 222,74 C222,75.6568542 220.656854,77 219,77 C217.343146,77 216,75.6568542 216,74 L216,11.9949105 C216,8.68989013 213.309278,6 209.990104,6 L30.0098959,6 C26.6775206,6 24,8.68401285 24,11.9949105 L24,102.7585 L23.1241374,101.882638 C21.9490104,100.707511 20.0478229,100.705818 18.8762501,101.877391 C17.7070611,103.04658 17.7070262,104.950808 18.8814967,106.125278 L40.0842069,127.327989 C40.7736724,128.017454 41.7130737,128.302982 42.6084105,128.184606 C43.5012709,128.299868 44.4374408,128.014685 45.1241374,127.327989 L64.6041721,107.847954 L84.0842069,127.327989 C84.7736724,128.017454 85.7130737,128.302982 86.6084105,128.184606 C87.5012709,128.299868 88.4374408,128.014685 89.1241374,127.327989 L108.604172,107.847954 L128.084207,127.327989 C128.773672,128.017454 129.713074,128.302982 130.60841,128.184606 C131.501271,128.299868 132.437441,128.014685 133.124137,127.327989 L152.604172,107.847954 L172.084207,127.327989 C172.771289,128.01507 173.706581,128.301003 174.599123,128.18582 C175.492225,128.305436 176.428558,128.023568 177.11371,127.338416 L185.609923,118.842203 C186.769357,117.682769 186.776315,115.776315 185.604743,114.604743 C184.435554,113.435554 182.535994,113.43085 181.367282,114.599562 L174.604172,121.362672 L155.124137,101.882638 C154.434672,101.193172 153.495271,100.907644 152.599934,101.02602 C151.707073,100.910758 150.770903,101.195941 150.084207,101.882638 L130.604172,121.362672 L111.124137,101.882638 C110.434672,101.193172 109.495271,100.907644 108.599934,101.02602 C107.707073,100.910758 106.770903,101.195941 106.084207,101.882638 L86.6041721,121.362672 L67.1241374,101.882638 C66.4346718,101.193172 65.4952705,100.907644 64.5999338,101.02602 C63.7070734,100.910758 62.7709035,101.195941 62.0842069,101.882638 L42.6041721,121.362672 L24,102.7585 Z M38,24 C35.790861,24 34,22.209139 34,20 C34,17.790861 35.790861,16 38,16 C40.209139,16 42,17.790861 42,20 C42,22.209139 40.209139,24 38,24 Z M54,24 C51.790861,24 50,22.209139 50,20 C50,17.790861 51.790861,16 54,16 C56.209139,16 58,17.790861 58,20 C58,22.209139 56.209139,24 54,24 Z M70,24 C67.790861,24 66,22.209139 66,20 C66,17.790861 67.790861,16 70,16 C72.209139,16 74,17.790861 74,20 C74,22.209139 72.209139,24 70,24 Z M94,20 C94,18.3431458 95.3511209,17 96.9992831,17 L201.000717,17 C202.657175,17 204,18.3465171 204,20 C204,21.6568542 202.648879,23 201.000717,23 L96.9992831,23 C95.3428248,23 94,21.6534829 94,20 Z" id="Shape" fill="#3B4340" fill-rule="nonzero" opacity="0.266870471"></path>
            <g id="Triangle-1-+-Rectangle-270-+-Oval-106" transform="translate(179.000000, 87.000000)" fill="#4A4A4A" opacity="0.176177536">
                <path d="M33.1103515,5.02343753 C36.9153993,-1.06463891 43.0841713,-1.06532587 46.8896485,5.02343753 L78.1103515,54.9765625 C81.9153993,61.0646389 79.1814753,66 72.0093451,66 L7.99065491,66 C0.816114314,66 -1.91582867,61.0653259 1.88964845,54.9765625 L33.1103515,5.02343753 Z M36,21.0000191 L36,44.9999809 C36,46.6526814 37.3431458,48 39,48 C40.6534829,48 42,46.6568457 42,44.9999809 L42,21.0000191 C42,19.3473186 40.6568542,18 39,18 C37.3465171,18 36,19.3431543 36,21.0000191 Z M39,58 C40.6568542,58 42,56.6568542 42,55 C42,53.3431458 40.6568542,52 39,52 C37.3431458,52 36,53.3431458 36,55 C36,56.6568542 37.3431458,58 39,58 Z" id="Triangle-1"></path>
            </g>
        </g>
    </g>
</svg>